<?xml version="1.0" encoding="utf-8"?>
<!-- Generator: Adobe Illustrator 19.0.0, SVG Export Plug-In . SVG Version: 6.00 Build 0)  -->
<svg version="1.1" id="图层_1" xmlns="http://www.w3.org/2000/svg" xmlns:xlink="http://www.w3.org/1999/xlink" x="0px" y="0px"
	 viewBox="-411 413 200 200" style="enable-background:new -411 413 200 200;" xml:space="preserve">
<style type="text/css">
	.st0{fill:#F9C700;}
</style>
<path class="st0" d="M-211,527c-0.1,20.4-16.6,36.5-37.3,36.4c-19.9-0.1-36.2-16.9-36-37c0.1-19.9,16.7-36.5,36.4-36.4
	C-227.1,490.1-210.9,506.3-211,527L-211,527z M-271.5,526.5c-0.1,13.2,10.4,23.8,23.7,24c13.1,0.1,23.8-10.5,23.8-23.6
	c0-13.1-10.5-23.8-23.4-24C-260.7,502.8-271.3,513.3-271.5,526.5L-271.5,526.5z M-374.4,563.3c-20.5,0-36.6-16.5-36.6-37.3
	c0-19.6,16.9-36.1,36.8-36c20.3,0,36.6,16.5,36.6,36.8C-337.6,546.9-354.1,563.3-374.4,563.3L-374.4,563.3z M-398.1,526.7
	c0.1,13.3,10.4,23.7,23.8,23.7c12.9,0,23.6-10.8,23.6-23.8c0-13.1-10.6-23.8-23.6-23.7C-387.7,502.9-398.1,513.4-398.1,526.7
	L-398.1,526.7z M-309.7,489.9h18.4c4.7,0,7.5,2.9,7.1,7.1c-0.4,3.7-2.9,5.8-7.1,5.8c-6.2,0.1-12.4,0-18.8,0
	c-0.1,0.9-0.1,1.5-0.1,2.2c0,16.7,0,33.5-0.1,50.2c0,2.2-0.6,4.8-2,6.1c-1.4,1.3-4.3,1.9-6.1,1.4c-1.8-0.5-3.2-2.8-4.3-4.7
	c-0.6-0.9-0.3-2.4-0.3-3.7v-66.9c0-14.7,9.9-24.7,24.6-24.8h6.5c4.8,0,7.9,2.4,7.9,6.5c0,4.1-2.9,6.6-7.7,6.6h-6.8
	C-306.8,475.5-311.5,481.5-309.7,489.9L-309.7,489.9z M-309.7,489.9"/>
</svg>
